<mxfile host="app.diagrams.net" modified="2020-09-24T05:59:50.260Z" agent="5.0 (Windows)" etag="7r6n3rzakBNd6ucNIATf" version="13.7.5" type="github">
  <diagram name="Page-1" id="03018318-947c-dd8e-b7a3-06fadd420f32">
    <mxGraphModel dx="1896" dy="1919" grid="1" gridSize="10" guides="1" tooltips="1" connect="1" arrows="1" fold="1" page="1" pageScale="1" pageWidth="1100" pageHeight="850" background="#ffffff" math="0" shadow="0">
      <root>
        <mxCell id="0" />
        <mxCell id="1" parent="0" />
        <mxCell id="KyJEyf6-9jhyd7c3mLH5-1" value="" style="rounded=1;whiteSpace=wrap;html=1;fillColor=#dae8fc;strokeColor=#6c8ebf;" vertex="1" parent="1">
          <mxGeometry x="240" y="-100" width="1140" height="890" as="geometry" />
        </mxCell>
        <mxCell id="KyJEyf6-9jhyd7c3mLH5-5" value="" style="ellipse;whiteSpace=wrap;html=1;aspect=fixed;spacing=5;" vertex="1" parent="1">
          <mxGeometry x="475" y="140" width="150" height="150" as="geometry" />
        </mxCell>
        <mxCell id="KyJEyf6-9jhyd7c3mLH5-6" value="" style="ellipse;whiteSpace=wrap;html=1;aspect=fixed;spacing=5;" vertex="1" parent="1">
          <mxGeometry x="350" y="152.5" width="125" height="125" as="geometry" />
        </mxCell>
        <mxCell id="KyJEyf6-9jhyd7c3mLH5-7" value="" style="ellipse;whiteSpace=wrap;html=1;aspect=fixed;spacing=5;" vertex="1" parent="1">
          <mxGeometry x="625" y="152.5" width="125" height="125" as="geometry" />
        </mxCell>
        <mxCell id="KyJEyf6-9jhyd7c3mLH5-12" value="Cases" style="text;html=1;strokeColor=none;fillColor=none;align=center;verticalAlign=middle;whiteSpace=wrap;rounded=0;fontStyle=1" vertex="1" parent="1">
          <mxGeometry x="530" y="152.5" width="40" height="20" as="geometry" />
        </mxCell>
        <mxCell id="KyJEyf6-9jhyd7c3mLH5-15" value="Recovered" style="text;html=1;strokeColor=none;fillColor=none;align=center;verticalAlign=middle;whiteSpace=wrap;rounded=0;fontStyle=1" vertex="1" parent="1">
          <mxGeometry x="393" y="173" width="40" height="20" as="geometry" />
        </mxCell>
        <mxCell id="KyJEyf6-9jhyd7c3mLH5-17" value="Deaths" style="text;html=1;strokeColor=none;fillColor=none;align=center;verticalAlign=middle;whiteSpace=wrap;rounded=0;fontStyle=1" vertex="1" parent="1">
          <mxGeometry x="670" y="173" width="40" height="20" as="geometry" />
        </mxCell>
        <mxCell id="KyJEyf6-9jhyd7c3mLH5-18" value="4242342" style="text;html=1;strokeColor=none;fillColor=none;align=center;verticalAlign=middle;whiteSpace=wrap;rounded=0;" vertex="1" parent="1">
          <mxGeometry x="392.5" y="210" width="40" height="20" as="geometry" />
        </mxCell>
        <mxCell id="KyJEyf6-9jhyd7c3mLH5-19" value="34534535345" style="text;html=1;strokeColor=none;fillColor=none;align=center;verticalAlign=middle;whiteSpace=wrap;rounded=0;" vertex="1" parent="1">
          <mxGeometry x="530" y="205" width="40" height="20" as="geometry" />
        </mxCell>
        <mxCell id="KyJEyf6-9jhyd7c3mLH5-20" value="23423423" style="text;html=1;strokeColor=none;fillColor=none;align=center;verticalAlign=middle;whiteSpace=wrap;rounded=0;" vertex="1" parent="1">
          <mxGeometry x="670" y="205" width="40" height="20" as="geometry" />
        </mxCell>
        <mxCell id="KyJEyf6-9jhyd7c3mLH5-22" value="Universe" style="strokeWidth=1;shadow=0;dashed=0;align=center;html=1;shape=mxgraph.mockup.buttons.button;mainText=;buttonStyle=round;fontSize=17;fontStyle=1;whiteSpace=wrap;" vertex="1" parent="1">
          <mxGeometry x="415" y="50" width="270" height="50" as="geometry" />
        </mxCell>
        <mxCell id="KyJEyf6-9jhyd7c3mLH5-23" value="" style="verticalLabelPosition=bottom;shadow=0;dashed=0;align=center;html=1;verticalAlign=top;strokeWidth=1;shape=mxgraph.mockup.misc.map;" vertex="1" parent="1">
          <mxGeometry x="334" y="310" width="437" height="400" as="geometry" />
        </mxCell>
        <mxCell id="KyJEyf6-9jhyd7c3mLH5-24" value="" style="rounded=1;whiteSpace=wrap;html=1;" vertex="1" parent="1">
          <mxGeometry x="810" y="40" width="480" height="670" as="geometry" />
        </mxCell>
        <mxCell id="KyJEyf6-9jhyd7c3mLH5-25" value="Honest Covid" style="text;html=1;strokeColor=none;fillColor=none;align=center;verticalAlign=middle;whiteSpace=wrap;rounded=0;fontSize=30;labelBorderColor=none;fontFamily=Tahoma;" vertex="1" parent="1">
          <mxGeometry x="640" y="-90" width="310" height="100" as="geometry" />
        </mxCell>
        <mxCell id="KyJEyf6-9jhyd7c3mLH5-29" value="Vaccine Status" style="text;html=1;strokeColor=none;fillColor=none;align=center;verticalAlign=middle;whiteSpace=wrap;rounded=0;fontFamily=Tahoma;fontSize=18;fontColor=#000000;" vertex="1" parent="1">
          <mxGeometry x="880" y="65" width="330" height="20" as="geometry" />
        </mxCell>
        <mxCell id="KyJEyf6-9jhyd7c3mLH5-44" value="&lt;table style=&quot;font-size: 1em&quot; width=&quot;100%&quot; cellspacing=&quot;0&quot; cellpadding=&quot;0&quot; border=&quot;0&quot;&gt;&lt;tbody&gt;&lt;tr&gt;&lt;td width=&quot;25%&quot;&gt;Phase 1&lt;br&gt;&lt;/td&gt;&lt;td width=&quot;25%&quot;&gt;Phase 2&lt;/td&gt;&lt;td width=&quot;25%&quot;&gt;&lt;font color=&quot;#4F4F4F&quot;&gt;Phase 3&lt;/font&gt;&lt;/td&gt;&lt;td width=&quot;25%&quot;&gt;Approved&lt;br&gt;&lt;/td&gt;&lt;/tr&gt;&lt;tr&gt;&lt;td&gt;&lt;br&gt;&lt;/td&gt;&lt;/tr&gt;&lt;/tbody&gt;&lt;/table&gt;" style="strokeWidth=1;shadow=0;dashed=0;align=center;html=1;shape=mxgraph.mockup.navigation.stepBar;strokeColor=#c4c4c4;textColor=#666666;textColor2=#008cff;mainText=,,+,;textSize=17;fillColor=#666666;overflow=fill;fontSize=17;fontColor=#666666;" vertex="1" parent="1">
          <mxGeometry x="850" y="120" width="400" height="50" as="geometry" />
        </mxCell>
        <UserObject label="Vaccine Status " link="data:page/id,03018318-947c-dd8e-b7a3-06fadd420f32" id="KyJEyf6-9jhyd7c3mLH5-47">
          <mxCell style="text;html=1;strokeColor=none;fillColor=none;whiteSpace=wrap;align=center;verticalAlign=middle;fontColor=#0000EE;fontStyle=4;fontSize=16;" vertex="1" parent="1">
            <mxGeometry x="1010" y="173" width="150" height="40" as="geometry" />
          </mxCell>
        </UserObject>
        <mxCell id="KyJEyf6-9jhyd7c3mLH5-48" value="Source : " style="text;html=1;strokeColor=none;fillColor=none;align=center;verticalAlign=middle;whiteSpace=wrap;rounded=0;fontFamily=Tahoma;fontSize=18;fontColor=#000000;" vertex="1" parent="1">
          <mxGeometry x="930" y="183" width="120" height="20" as="geometry" />
        </mxCell>
        <mxCell id="KyJEyf6-9jhyd7c3mLH5-49" style="edgeStyle=orthogonalEdgeStyle;rounded=0;orthogonalLoop=1;jettySize=auto;html=1;exitX=0.5;exitY=1;exitDx=0;exitDy=0;fontFamily=Tahoma;fontSize=18;fontColor=#000000;" edge="1" parent="1" source="KyJEyf6-9jhyd7c3mLH5-48" target="KyJEyf6-9jhyd7c3mLH5-48">
          <mxGeometry relative="1" as="geometry" />
        </mxCell>
        <mxCell id="KyJEyf6-9jhyd7c3mLH5-50" value="&lt;div style=&quot;font-size: 18px&quot;&gt;&lt;font style=&quot;font-size: 18px&quot;&gt;&lt;br&gt;&lt;/font&gt;&lt;/div&gt;&lt;div style=&quot;font-size: 18px&quot;&gt;&lt;font style=&quot;font-size: 18px&quot;&gt;&lt;br&gt;&lt;/font&gt;&lt;/div&gt;&lt;div style=&quot;font-size: 18px&quot;&gt;&lt;font style=&quot;font-size: 18px&quot;&gt;&amp;nbsp;&amp;nbsp;&amp;nbsp;&amp;nbsp;&amp;nbsp;&amp;nbsp;&amp;nbsp;&amp;nbsp; Good Practices during COVID 19 &lt;br&gt;&lt;/font&gt;&lt;/div&gt;&lt;div style=&quot;font-size: 18px&quot;&gt;&lt;font style=&quot;font-size: 18px&quot;&gt;&lt;br&gt;&lt;/font&gt;&lt;/div&gt;" style="text;html=1;strokeColor=none;fillColor=none;spacing=5;spacingTop=-20;whiteSpace=wrap;overflow=hidden;rounded=0;fontFamily=Tahoma;fontSize=16;fontColor=#000000;" vertex="1" parent="1">
          <mxGeometry x="855" y="250" width="390" height="390" as="geometry" />
        </mxCell>
        <mxCell id="KyJEyf6-9jhyd7c3mLH5-51" value="" style="verticalLabelPosition=bottom;shadow=0;dashed=0;align=center;html=1;verticalAlign=top;strokeWidth=1;shape=mxgraph.mockup.containers.videoPlayer;strokeColor=#666666;strokeColor2=#008cff;strokeColor3=#c4c4c4;textColor=#666666;fillColor2=#008cff;barHeight=30;barPos=20;fontFamily=Tahoma;fontSize=16;fontColor=#000000;" vertex="1" parent="1">
          <mxGeometry x="865" y="330" width="380" height="300" as="geometry" />
        </mxCell>
      </root>
    </mxGraphModel>
  </diagram>
</mxfile>
